# xmcd
#
# Track frame offsets:
#	183
#	11693
#	28933
#	41573
#	60633
#	88048
#	103148
#	122133
#	143280
#	158408
#
# Disc length: 2329 seconds
#
# Revision: 2
# Processed by: cddbd v1.5.2PL0 Copyright (c) Steve Scherf et al.
# Submitted via: EZCDAudioConverter 3.1.7.1
#
DISCID=7909170a
DTITLE=הגבעטרון - שנות ילדות
DYEAR=1991
DGENRE=פולק
TTITLE0=בייגלאך
TTITLE1=צימוקים ושקדים
TTITLE2=מרק כרוב
TTITLE3=אברמל
TTITLE4=שנות ילדות (מחרוזת)
TTITLE5=סיגריות
TTITLE6=על הדרך עץ עומד
TTITLE7=בעלז (מחרוזת)
TTITLE8=אם זה כן ואם זה לא
TTITLE9=צ'יריבים צ'יריבום-מחרוזת
EXTD=
EXTT0=
EXTT1=
EXTT2=
EXTT3=
EXTT4=
EXTT5=
EXTT6=
EXTT7=
EXTT8=
EXTT9=
PLAYORDER=
